<?xml version="1.0" encoding="UTF-8" standalone="no" ?>
<!DOCTYPE svg PUBLIC "-//W3C//DTD SVG 1.1//EN" "http://www.w3.org/Graphics/SVG/1.1/DTD/svg11.dtd">
<svg xmlns="http://www.w3.org/2000/svg" xmlns:xlink="http://www.w3.org/1999/xlink" version="1.1" width="700" height="700" viewBox="0 0 700 700" xml:space="preserve">
<desc>Created with Fabric.js 3.6.6</desc>
<defs>
</defs>
<g transform="matrix(1 0 0 1 335 498)"  >
<g style=""   >
		<g transform="matrix(0.13 0 0 -0.13 0 -449.07)"  >
<path style="stroke: rgb(55,27,88); stroke-width: 1; stroke-dasharray: none; stroke-linecap: butt; stroke-dashoffset: 0; stroke-linejoin: miter; stroke-miterlimit: 4; fill: rgb(55,27,88); fill-rule: nonzero; opacity: 1;"  transform=" translate(-6000, -9368)" d="M 5537 9368 l 463 -151 l 347 113 c 192 63 400 131 463 151 l 115 38 l -925 0 l -925 0 l 462 -151 z" stroke-linecap="round" />
</g>
		<g transform="matrix(0.13 0 0 -0.13 0 -190.13)"  >
<path style="stroke: rgb(55,27,88); stroke-width: 1; stroke-dasharray: none; stroke-linecap: butt; stroke-dashoffset: 0; stroke-linejoin: miter; stroke-miterlimit: 4; fill: rgb(55,27,88); fill-rule: nonzero; opacity: 1;"  transform=" translate(-6000, -7425.99)" d="M 4130 7613 l 1 -1818 l 305 -185 c 168 -102 310 -186 315 -188 c 5 -2 10 241 11 574 l 3 577 l 590 222 c 325 122 700 264 835 315 c 135 51 380 143 545 205 c 1147 433 1102 414 1122 455 c 10 19 13 214 13 843 l 0 817 l -317 0 l -318 0 l -560 -184 l -560 -183 l -3 -660 l -2 -661 l -73 -28 c -39 -15 -87 -33 -106 -40 c -18 -8 -35 -14 -37 -14 c -2 0 -5 316 -6 702 l -3 701 l -560 183 l -560 183 l -317 1 l -318 0 l 0 -1817 z m 918 1143 l 262 -88 l -2 -615 l -3 -615 l -235 -89 c -129 -49 -252 -96 -272 -104 l -38 -15 l 0 811 c 0 645 3 810 13 807 c 6 -3 130 -44 275 -92 z m 2190 -248 l -3 -342 l -220 -83 c -121 -46 -244 -92 -272 -103 l -53 -20 l 0 354 l 0 354 l 268 90 c 147 50 270 91 275 91 c 4 1 6 -153 5 -341 z" stroke-linecap="round" />
</g>
		<g transform="matrix(0.13 0 0 -0.13 132 -5.02)"  >
<path style="stroke: rgb(55,27,88); stroke-width: 1; stroke-dasharray: none; stroke-linecap: butt; stroke-dashoffset: 0; stroke-linejoin: miter; stroke-miterlimit: 4; fill: rgb(55,27,88); fill-rule: nonzero; opacity: 1;"  transform=" translate(-6990, -6037.62)" d="M 7355 7341 c -22 -4 -57 -14 -77 -21 l -38 -14 l 0 -636 l 0 -635 l -269 -162 c -148 -90 -271 -163 -275 -163 c -3 0 -7 312 -8 693 l -3 693 l -287 -109 l -288 -110 l 0 -1074 l 0 -1075 l 38 22 c 108 64 1671 1016 1695 1032 l 27 19 l 0 582 c 0 356 -4 599 -11 626 c -51 223 -276 371 -504 332 z" stroke-linecap="round" />
</g>
		<g transform="matrix(0.13 0 0 -0.13 -53.33 32.07)"  >
<path style="stroke: rgb(55,27,88); stroke-width: 1; stroke-dasharray: none; stroke-linecap: butt; stroke-dashoffset: 0; stroke-linejoin: miter; stroke-miterlimit: 4; fill: rgb(55,27,88); fill-rule: nonzero; opacity: 1;"  transform=" translate(-5600, -5759.5)" d="M 5592 6683 l -282 -107 l 2 -750 l 3 -750 l 260 -158 c 143 -88 272 -166 288 -174 l 27 -15 l 0 1031 c 0 566 -3 1030 -7 1030 c -5 -1 -135 -49 -291 -107 z" stroke-linecap="round" />
</g>
</g>
</g>
</svg>